<?xml version="1.0" encoding="UTF-8" standalone="no"?>
<!-- Uploaded to: SVG Repo, www.svgrepo.com, Generator: SVG Repo Mixer Tools -->

<svg
   height="1000"
   width="1000"
   version="1.1"
   id="Layer_1"
   viewBox="0 0 640 640"
   xml:space="preserve"
   sodipodi:docname="rocket-svgrepo-com.svg"
   inkscape:version="1.2.2 (b0a84865, 2022-12-01)"
   xmlns:inkscape="http://www.inkscape.org/namespaces/inkscape"
   xmlns:sodipodi="http://sodipodi.sourceforge.net/DTD/sodipodi-0.dtd"
   xmlns="http://www.w3.org/2000/svg"
   xmlns:svg="http://www.w3.org/2000/svg"><defs
   id="defs23" /><sodipodi:namedview
   id="namedview21"
   pagecolor="#ffffff"
   bordercolor="#000000"
   borderopacity="0.25"
   inkscape:showpageshadow="2"
   inkscape:pageopacity="1"
   inkscape:pagecheckerboard="0"
   inkscape:deskcolor="#d1d1d1"
   showgrid="false"
   inkscape:zoom="0.295"
   inkscape:cx="400"
   inkscape:cy="415.25424"
   inkscape:window-width="1269"
   inkscape:window-height="605"
   inkscape:window-x="171"
   inkscape:window-y="25"
   inkscape:window-maximized="0"
   inkscape:current-layer="Layer_1" />
<path
   style="fill:#507c5c"
   d="M 408.318,442.104 H 214.142 c -7.579,0 -13.727,-6.135 -13.743,-13.713 -0.004,-1.861 -0.41,-186.327 -0.379,-217.421 0.058,-61.913 63.73,-121.176 83.243,-137.865 16.24,-13.889 39.78,-13.841 55.973,0.115 22.198,19.129 52.373,52.623 70.487,89.258 3.364,6.804 0.576,15.047 -6.227,18.41 -6.807,3.363 -15.047,0.576 -18.41,-6.227 -16.294,-32.951 -43.637,-63.25 -63.795,-80.62 -5.833,-5.026 -14.312,-5.051 -20.164,-0.048 -35.566,30.419 -73.584,77.13 -73.621,117.004 -0.025,26.047 0.257,160.023 0.35,203.621 H 408.32 c 7.589,0 13.743,6.154 13.743,13.743 0,7.589 -6.154,13.743 -13.745,13.743 z"
   id="path2" />
<path
   style="fill:#cff09e"
   d="M 481.45,470.185 408.874,428.951 V 252.436 l 54.107,51.233 c 11.79,11.165 18.469,26.688 18.469,42.926 z"
   id="path4" />
<path
   style="fill:#507c5c"
   d="m 481.45,483.93 c -2.342,0 -4.682,-0.598 -6.788,-1.795 l -72.576,-41.234 c -4.299,-2.441 -6.955,-7.005 -6.955,-11.948 V 252.436 c 0,-5.49 3.268,-10.453 8.312,-12.624 5.044,-2.169 10.894,-1.13 14.881,2.644 l 54.107,51.233 c 14.465,13.699 22.763,32.982 22.763,52.904 v 123.591 c 0,4.894 -2.602,9.417 -6.83,11.878 -2.135,1.244 -4.525,1.868 -6.914,1.868 z m -58.832,-62.977 45.09,25.619 v -99.976 c 0,-12.406 -5.167,-24.415 -14.175,-32.947 l -30.914,-29.273 v 136.577 z"
   id="path6" />
<path
   style="fill:#cff09e"
   d="m 140.63,470.185 72.576,-41.234 V 252.436 l -54.107,51.233 c -11.79,11.165 -18.469,26.688 -18.469,42.926 0,0 0,123.59 0,123.59 z"
   id="path8" />
<path
   style="fill:#507c5c"
   d="m 140.63,483.93 c -2.389,0 -4.777,-0.623 -6.913,-1.865 -4.229,-2.461 -6.83,-6.984 -6.83,-11.878 V 346.595 c 0,-19.922 8.297,-39.205 22.763,-52.903 l 54.107,-51.235 c 3.987,-3.772 9.843,-4.81 14.881,-2.644 5.044,2.17 8.312,7.133 8.312,12.625 v 176.515 c 0,4.945 -2.657,9.508 -6.955,11.948 l -72.576,41.234 c -2.105,1.197 -4.449,1.795 -6.789,1.795 z m 58.833,-199.554 -30.914,29.274 c -9.009,8.53 -14.175,20.538 -14.175,32.945 v 99.976 l 45.09,-25.619 V 284.376 Z"
   id="path10" />
<circle
   style="fill:#cff09e"
   cx="311.03397"
   cy="248.30794"
   r="46.891998"
   id="circle12" />
<path
   style="fill:#507c5c"
   d="m 311.04,308.947 c -33.434,0 -60.635,-27.201 -60.635,-60.634 0,-33.434 27.201,-60.635 60.635,-60.635 33.434,0 60.635,27.201 60.635,60.635 0,33.434 -27.201,60.634 -60.635,60.634 z m 0,-93.782 c -18.278,0 -33.149,14.87 -33.149,33.149 0,18.279 14.87,33.147 33.149,33.147 18.279,0 33.149,-14.869 33.149,-33.147 0,-18.278 -14.871,-33.149 -33.149,-33.149 z"
   id="path14" />
<path
   style="fill:#cff09e"
   d="m 260.066,483.395 c -0.216,1.909 -0.338,3.844 -0.338,5.809 0,50.74 51.31,71.772 51.31,71.772 0,0 51.31,-19.892 51.31,-71.772 0,-1.965 -0.122,-3.9 -0.338,-5.809 z"
   id="path16" />
<path
   style="fill:#507c5c"
   d="m 311.04,574.72 c -1.771,0 -3.543,-0.342 -5.213,-1.027 -2.442,-1.002 -59.841,-25.211 -59.841,-84.489 0,-2.379 0.143,-4.851 0.423,-7.347 0.782,-6.953 6.663,-12.207 13.658,-12.207 h 101.947 c 6.995,0 12.875,5.254 13.658,12.207 0.28,2.494 0.423,4.967 0.423,7.347 0,60.595 -57.632,83.634 -60.085,84.587 -1.602,0.618 -3.285,0.929 -4.97,0.929 z m -37.023,-77.582 c 3.823,27.415 26.791,42.919 37.163,48.603 10.438,-5.497 33.208,-20.545 36.913,-48.603 z"
   id="path18" />
</svg>
